<svg id="Layer_1" data-name="Layer 1" xmlns="http://www.w3.org/2000/svg" viewBox="0 0 98 38"><defs><style>.cls-1{fill:#fff;}</style></defs><title>logo</title><path class="cls-1" d="M13.744,38.077a21.224,21.224,0,0,1-6.27-1,19.752,19.752,0,0,1-4.729.683A23.087,23.087,0,0,1,0,37.655q0.367-3.1,3.162-15.762t2.8-14.368a6.005,6.005,0,0,0-.706-2.975A6.742,6.742,0,0,0,3.868,2.709L3.136,2.131l0.157-.79A43.947,43.947,0,0,1,8.858.525,70.754,70.754,0,0,1,16.2.077q7.262,0,11,3.236t3.736,10.5a33.425,33.425,0,0,1-1.958,11.4,22.692,22.692,0,0,1-5.983,9.157A13.251,13.251,0,0,1,13.744,38.077Zm3.71-34.685a17.151,17.151,0,0,0-3.083.317A138.874,138.874,0,0,1,11.418,20q-2.43,10.71-2.847,13.659a7.792,7.792,0,0,0,3.449.63,6.139,6.139,0,0,0,4.155-1.763,13.188,13.188,0,0,0,3.16-4.394,38.632,38.632,0,0,0,2.092-5.894A42.7,42.7,0,0,0,22.94,11.6q0-4.79-1.254-6.5T17.454,3.392Z" transform="translate(0 -0.077)"/><path class="cls-1" d="M31.533,28.339q0-6.579,3.944-10.393A12.552,12.552,0,0,1,44.44,14.13a8.081,8.081,0,0,1,5.069,1.527,4.881,4.881,0,0,1,1.986,4.078,7.036,7.036,0,0,1-1.28,4.29,8.929,8.929,0,0,1-3.109,2.683,23.618,23.618,0,0,1-6.793,2.317l-1.254.158q0.364,4.947,4.023,4.947a6.572,6.572,0,0,0,2.666-.632,10.2,10.2,0,0,0,2.194-1.264l0.782-.632,1.254,1.683a8.458,8.458,0,0,1-1.671,1.527,22.619,22.619,0,0,1-2.352,1.578,13.419,13.419,0,0,1-6.636,1.685,6.937,6.937,0,0,1-5.7-2.578A11.077,11.077,0,0,1,31.533,28.339Zm11.705-4a6.767,6.767,0,0,0,1.567-4.632q0-2.843-1.671-2.842-1.987,0-3.058,3.394A21.139,21.139,0,0,0,39,26.6,7.063,7.063,0,0,0,43.238,24.341Z" transform="translate(0 -0.077)"/><path class="cls-1" d="M57.686,14.13a5.177,5.177,0,0,1,3.4.947q1.123,0.948,1.123,3.9a43.4,43.4,0,0,1-.94,6.446,48.618,48.618,0,0,0-.94,5.921c0,1.4.276,2.105,0.836,2.105q1.984,0,4.363-2.972T68.007,25.5l-3.553-4a11.832,11.832,0,0,1,1.1-4.1,9.053,9.053,0,0,1,1.673-2.581l0.731-.683a4.467,4.467,0,0,1,3.4,1.21,4,4,0,0,1,1.15,2.842,21.838,21.838,0,0,1-2.039,8.789,24.142,24.142,0,0,1-5.435,7.868q-3.4,3.238-6.9,3.238a4.2,4.2,0,0,1-3.37-1.368A5.347,5.347,0,0,1,53.585,33.1q0-2.236.34-6.024t0.34-7.528a4.523,4.523,0,0,0-.6-2,8.624,8.624,0,0,0-1.227-1.842l0.155-.632A16.185,16.185,0,0,1,57.686,14.13Z" transform="translate(0 -0.077)"/><path class="cls-1" d="M80.495,38.077a6.817,6.817,0,0,1-5.643-2.553,11.158,11.158,0,0,1-2.039-7.131A16.451,16.451,0,0,1,75.923,18.34a10.086,10.086,0,0,1,8.594-4.21l1.882,0.1a4.162,4.162,0,0,1,1.986-.473q4.127,0,4.127,7.842a26.686,26.686,0,0,0,4.338-.58l0.836-.21L98,22.866a24.006,24.006,0,0,1-4.65,1.317l-1.046.21A22.516,22.516,0,0,1,88.281,34,9.3,9.3,0,0,1,80.495,38.077Zm2.822-4.527q2.194,0,3.946-2.842a19.007,19.007,0,0,0,2.428-6q-5.591,0-5.59-4.21a7.452,7.452,0,0,1,.678-3.159l0.262-.527a1.18,1.18,0,0,0-.523-0.1,0.864,0.864,0,0,0-.47.1q-1.308.842-2.456,3.947a20.365,20.365,0,0,0-1.15,7.106Q80.441,33.552,83.316,33.55Z" transform="translate(0 -0.077)"/></svg>